<svg id="visual" viewBox="0 0 900 600" width="900" height="600" xmlns="http://www.w3.org/2000/svg" xmlns:xlink="http://www.w3.org/1999/xlink" version="1.1"><rect x="0" y="0" width="900" height="600" fill="#f70fe9"></rect><path d="M0 519L21.5 511.5C43 504 86 489 128.8 487.8C171.7 486.7 214.3 499.3 257.2 511.7C300 524 343 536 385.8 531.8C428.7 527.7 471.3 507.3 514.2 495.2C557 483 600 479 642.8 480.5C685.7 482 728.3 489 771.2 498.8C814 508.7 857 521.3 878.5 527.7L900 534L900 601L878.5 601C857 601 814 601 771.2 601C728.3 601 685.7 601 642.8 601C600 601 557 601 514.2 601C471.3 601 428.7 601 385.8 601C343 601 300 601 257.2 601C214.3 601 171.7 601 128.8 601C86 601 43 601 21.5 601L0 601Z" fill="#FFFFFF" stroke-linecap="round" stroke-linejoin="miter"></path></svg>